<?xml version="1.0" encoding="utf-8"?>
<!-- Generator: Adobe Illustrator 23.0.1, SVG Export Plug-In . SVG Version: 6.00 Build 0)  -->
<!DOCTYPE svg PUBLIC "-//W3C//DTD SVG 1.1//EN" "http://www.w3.org/Graphics/SVG/1.1/DTD/svg11.dtd" [
	<!ENTITY ns_extend "http://ns.adobe.com/Extensibility/1.0/">
	<!ENTITY ns_ai "http://ns.adobe.com/AdobeIllustrator/10.0/">
	<!ENTITY ns_graphs "http://ns.adobe.com/Graphs/1.0/">
	<!ENTITY ns_vars "http://ns.adobe.com/Variables/1.0/">
	<!ENTITY ns_imrep "http://ns.adobe.com/ImageReplacement/1.0/">
	<!ENTITY ns_sfw "http://ns.adobe.com/SaveForWeb/1.0/">
	<!ENTITY ns_custom "http://ns.adobe.com/GenericCustomNamespace/1.0/">
	<!ENTITY ns_adobe_xpath "http://ns.adobe.com/XPath/1.0/">
]>
<svg version="1.1" id="Layer_1_1_" xmlns:x="&ns_extend;" xmlns:i="&ns_ai;" xmlns:graph="&ns_graphs;"
	 xmlns="http://www.w3.org/2000/svg" xmlns:xlink="http://www.w3.org/1999/xlink" x="0px" y="0px" viewBox="0 0 64 64"
	 style="enable-background:new 0 0 64 64;" xml:space="preserve">
<style type="text/css">
	.st0{fill:#31263E;}
</style>
<metadata>
	<sfw  xmlns="&ns_sfw;">
		<slices></slices>
		<sliceSourceBounds  bottomLeftOrigin="true" height="62.4" width="62.4" x="0.9" y="1"></sliceSourceBounds>
	</sfw>
</metadata>
<g>
	<path class="st0" d="M17.2,37.9h6.5c0.3-0.7,0.9-1.3,1.6-1.4c0.4-0.1,0.8,0,1.1,0.1c0.2-0.8,0.9-1.5,1.7-1.6c0.4-0.1,0.8,0,1.2,0.1
		c0.2-0.8,0.9-1.4,1.7-1.5c0.4-0.1,0.7,0,1.1,0.1v-1.5v-3.5h-5.7c-0.4,0-0.7-0.3-0.7-0.7v-5.7c0-0.4,0.3-0.7,0.7-0.7H42
		c0.4,0,0.7,0.3,0.7,0.7v5.7c0,0.4-0.3,0.7-0.7,0.7h-5.7V35c1.7,0,3.1,1.2,3.5,2.8c0,0,0,0,0.1,0H47V15.2H17.2V37.9z M44.9,34.3
		h-5.7c-0.4,0-0.7-0.3-0.7-0.7c0-0.4,0.3-0.7,0.7-0.7h5.7c0.4,0,0.7,0.3,0.7,0.7C45.6,34,45.3,34.3,44.9,34.3z M44.9,31.5h-5.7
		c-0.4,0-0.7-0.3-0.7-0.7s0.3-0.7,0.7-0.7h5.7c0.4,0,0.7,0.3,0.7,0.7S45.3,31.5,44.9,31.5z M44.9,18c0.4,0,0.7,0.3,0.7,0.7
		s-0.3,0.7-0.7,0.7c-0.4,0-0.7-0.3-0.7-0.7S44.5,18,44.9,18z M36.4,18H42c0.4,0,0.7,0.3,0.7,0.7s-0.3,0.7-0.7,0.7h-5.7
		c-0.4,0-0.7-0.3-0.7-0.7S36,18,36.4,18z M30.7,18c0.4,0,0.7,0.3,0.7,0.7s-0.3,0.7-0.7,0.7c-0.4,0-0.7-0.3-0.7-0.7S30.3,18,30.7,18z
		 M27.8,18c0.4,0,0.7,0.3,0.7,0.7s-0.3,0.7-0.7,0.7c-0.4,0-0.7-0.3-0.7-0.7S27.5,18,27.8,18z M19.3,18H25c0.4,0,0.7,0.3,0.7,0.7
		s-0.3,0.7-0.7,0.7h-5.7c-0.4,0-0.7-0.3-0.7-0.7S19,18,19.3,18z M19.3,30.1H25c0.4,0,0.7,0.3,0.7,0.7s-0.3,0.7-0.7,0.7h-5.7
		c-0.4,0-0.7-0.3-0.7-0.7S19,30.1,19.3,30.1z M19.3,32.9H25c0.4,0,0.7,0.3,0.7,0.7c0,0.4-0.3,0.7-0.7,0.7h-5.7
		c-0.4,0-0.7-0.3-0.7-0.7C18.6,33.2,19,32.9,19.3,32.9z"/>
	<path class="st0" d="M36.4,36.4v5.7c0,0.4-0.3,0.7-0.7,0.7s-0.7-0.3-0.7-0.7V28c0-0.4-0.3-0.7-0.6-0.8c-0.2,0-0.4,0-0.6,0.2
		c-0.2,0.1-0.3,0.3-0.3,0.5v4.3v3.5v6.5c0,0.4-0.3,0.7-0.7,0.7s-0.7-0.3-0.7-0.7v-6.5c0-0.2-0.1-0.4-0.3-0.5
		c-0.2-0.1-0.4-0.2-0.6-0.2c-0.3,0.1-0.6,0.4-0.6,0.8v1.3c0,0,0,0,0,0c0,0,0,0,0,0v5c0,0.4-0.3,0.7-0.7,0.7s-0.7-0.3-0.7-0.7v-5
		c0,0,0,0,0,0c0,0,0,0,0,0c0-0.2-0.1-0.4-0.3-0.5c-0.2-0.1-0.4-0.2-0.6-0.2c-0.3,0.1-0.6,0.4-0.6,0.8v1.4v3.5c0,0.4-0.3,0.7-0.7,0.7
		s-0.7-0.3-0.7-0.7v-3.5c0-0.2-0.1-0.4-0.3-0.5c-0.2-0.1-0.4-0.2-0.6-0.2c-0.3,0.1-0.6,0.4-0.6,0.8v6.7c0,0.5,0.2,1,0.5,1.3l2.2,2.8
		c0.1,0.1,0.2,0.3,0.2,0.4v6.4h8.5v-6.4c0-0.1,0-0.3,0.1-0.4l1.7-2.9c0.2-0.3,0.3-0.7,0.3-1.1v-7C38.5,37.4,37.5,36.4,36.4,36.4z"/>
	<path class="st0" d="M11.5,17.3v18.4c0,1.2,1,2.1,2.1,2.1h2.1V15.2h-2.1C12.5,15.2,11.5,16.1,11.5,17.3z M14.4,23.7v5.7
		c0,0.4-0.3,0.7-0.7,0.7c-0.4,0-0.7-0.3-0.7-0.7v-5.7c0-0.4,0.3-0.7,0.7-0.7C14.1,23,14.4,23.3,14.4,23.7z"/>
	<path class="st0" d="M34.6,25.8c0.8,0.1,1.4,0.7,1.6,1.4c0,0,0.1,0,0.1,0h5V23H27.1v4.3h5c0,0,0.1,0,0.1,0c0.1-0.4,0.3-0.7,0.6-0.9
		C33.3,25.9,34,25.7,34.6,25.8z"/>
	<path class="st0" d="M50.5,15.2h-2.1v22.7h2.1c1.2,0,2.1-1,2.1-2.1V17.3C52.7,16.1,51.7,15.2,50.5,15.2z"/>
	<path class="st0" d="M32.1,0.6c-17.2,0-31.2,14-31.2,31.2S14.9,63,32.1,63s31.2-14,31.2-31.2S49.3,0.6,32.1,0.6z M54.1,35.7
		c0,2-1.6,3.5-3.5,3.5H39.9v6.3c0,0.6-0.2,1.3-0.5,1.8l-1.6,2.7V57c0,0.4-0.3,0.7-0.7,0.7h-9.9c-0.4,0-0.7-0.3-0.7-0.7v-6.8
		l-2.1-2.6c-0.5-0.6-0.8-1.4-0.8-2.2v-6.1h-9.9c-2,0-3.5-1.6-3.5-3.5V17.3c0-2,1.6-3.5,3.5-3.5h36.9c2,0,3.5,1.6,3.5,3.5V35.7z"/>
</g>
</svg>
