<?xml version="1.0" encoding="utf-8"?>
<!-- Generator: Adobe Illustrator 23.0.1, SVG Export Plug-In . SVG Version: 6.00 Build 0)  -->
<!DOCTYPE svg PUBLIC "-//W3C//DTD SVG 1.1//EN" "http://www.w3.org/Graphics/SVG/1.1/DTD/svg11.dtd" [
	<!ENTITY ns_extend "http://ns.adobe.com/Extensibility/1.0/">
	<!ENTITY ns_ai "http://ns.adobe.com/AdobeIllustrator/10.0/">
	<!ENTITY ns_graphs "http://ns.adobe.com/Graphs/1.0/">
	<!ENTITY ns_vars "http://ns.adobe.com/Variables/1.0/">
	<!ENTITY ns_imrep "http://ns.adobe.com/ImageReplacement/1.0/">
	<!ENTITY ns_sfw "http://ns.adobe.com/SaveForWeb/1.0/">
	<!ENTITY ns_custom "http://ns.adobe.com/GenericCustomNamespace/1.0/">
	<!ENTITY ns_adobe_xpath "http://ns.adobe.com/XPath/1.0/">
]>
<svg version="1.1" id="Livello_1" xmlns:x="&ns_extend;" xmlns:i="&ns_ai;" xmlns:graph="&ns_graphs;"
	 xmlns="http://www.w3.org/2000/svg" xmlns:xlink="http://www.w3.org/1999/xlink" x="0px" y="0px" viewBox="0 0 100 112"
	 style="enable-background:new 0 0 100 112;" xml:space="preserve">
<style type="text/css">
	.st0{fill:none;}
	.st1{fill:#31263E;}
</style>
<metadata>
	<sfw  xmlns="&ns_sfw;">
		<slices></slices>
		<sliceSourceBounds  bottomLeftOrigin="true" height="402" width="582" x="-1" y="-289"></sliceSourceBounds>
	</sfw>
</metadata>
<title></title>
<g>
	<title>background</title>
	<rect id="canvas_background" x="-1" y="-1" class="st0" width="582" height="402"/>
</g>
<title>Layer 1</title>
<path class="st1" d="M50,6.5C22.6,6.5,0.5,28.6,0.5,56s22.2,49.5,49.5,49.5S99.5,83.4,99.5,56S77.4,6.5,50,6.5z M67.3,85.2
	c-10.3,0-13.7-6.9-18.9-22.3L37.9,84c0,0.2-0.2,0.5-0.5,0.5h-8.9c-0.1,0-0.2,0-0.2-0.1c-0.4-0.1-0.5-0.6-0.4-1l15.8-35.9
	c-5.8-27.8-17.3-19.6-17.9-11.6l0,0c0,0.4-0.4,0.7-0.7,0.6l-2.2-0.2c-0.4,0-0.6-0.4-0.6-0.7c0.1-4.3,2.1-14.9,13-14.9
	c16.1,0,22.8,55.5,33.2,55.5c4.1,0,7.6-2.6,7.9-5c0-0.4,0.4-0.6,0.6-0.6l2.4-0.2c0,0,0,0,0.1,0c0.4,0,0.7,0.4,0.7,0.7
	C79.8,74.3,78.3,85.2,67.3,85.2z"/>
</svg>
