<?xml version="1.0" encoding="utf-8"?>
<!-- Generator: Adobe Illustrator 23.0.1, SVG Export Plug-In . SVG Version: 6.00 Build 0)  -->
<!DOCTYPE svg PUBLIC "-//W3C//DTD SVG 1.1//EN" "http://www.w3.org/Graphics/SVG/1.1/DTD/svg11.dtd" [
	<!ENTITY ns_extend "http://ns.adobe.com/Extensibility/1.0/">
	<!ENTITY ns_ai "http://ns.adobe.com/AdobeIllustrator/10.0/">
	<!ENTITY ns_graphs "http://ns.adobe.com/Graphs/1.0/">
	<!ENTITY ns_vars "http://ns.adobe.com/Variables/1.0/">
	<!ENTITY ns_imrep "http://ns.adobe.com/ImageReplacement/1.0/">
	<!ENTITY ns_sfw "http://ns.adobe.com/SaveForWeb/1.0/">
	<!ENTITY ns_custom "http://ns.adobe.com/GenericCustomNamespace/1.0/">
	<!ENTITY ns_adobe_xpath "http://ns.adobe.com/XPath/1.0/">
]>
<svg version="1.1" id="Livello_1" xmlns:x="&ns_extend;" xmlns:i="&ns_ai;" xmlns:graph="&ns_graphs;"
	 xmlns="http://www.w3.org/2000/svg" xmlns:xlink="http://www.w3.org/1999/xlink" x="0px" y="0px" viewBox="0 0 1000 1000"
	 style="enable-background:new 0 0 1000 1000;" xml:space="preserve">
<style type="text/css">
	.st0{fill:#31263E;}
</style>
<metadata>
	<sfw  xmlns="&ns_sfw;">
		<slices></slices>
		<sliceSourceBounds  bottomLeftOrigin="true" height="992.7" width="992.7" x="3.1" y="3.5"></sliceSourceBounds>
	</sfw>
</metadata>
<title>Layer 1</title>
<g>
	<path class="st0" d="M673.8,478.3c-4.2-4.2-11.1-4.2-15.3,0c-4.2,4.2-4.2,11.1,0,15.3l28.9,28.9l-28.9,28.9
		c-4.2,4.2-4.2,11.1,0,15.3c4.2,4.2,11.1,4.2,15.3,0l36.6-36.6v0c4.2-4.2,4.2-11.1,0-15.3L673.8,478.3z"/>
	<path class="st0" d="M632.9,483.4c-2.6-2.6-5.5-4.6-9-6c-3.4-1.5-7-2.2-10.8-2.2h-20.3c-6.7,0-10.1,3.3-10.1,9.9v71.8
		c0,5.7,2.8,8.5,8.5,8.5c5.5,0,8.3-2.8,8.3-8.5v-25.7H613c3.8,0,7.4-0.7,10.8-2.2c3.4-1.5,6.4-3.5,9-6c2.6-2.6,4.6-5.5,6.1-8.9h0
		c1.5-3.4,2.2-7,2.2-10.9c0-3.8-0.7-7.4-2.2-10.8C637.4,488.9,635.4,485.9,632.9,483.4z M621.1,511c-2.1,2.1-4.8,3.2-7.9,3.2h-13.7
		v-22.3h13.7c3.1,0,5.8,1.1,7.9,3.3c2.1,2.2,3.2,4.8,3.2,7.8C624.3,506.2,623.3,508.9,621.1,511z"/>
	<path class="st0" d="M459,487c-4.3-4.3-9.4-7.6-15.2-10.2c-5.8-2.5-12.1-3.8-19-3.8c-6.6,0-12.8,1.3-18.5,3.8
		c-5.7,2.6-10.6,6-14.8,10.4c-4.2,4.4-7.5,9.4-9.9,15.1c-2.4,5.7-3.6,11.8-3.6,18.1c0,6.5,1.3,12.6,3.8,18.3
		c2.5,5.7,5.9,10.6,10.2,14.8c4.3,4.2,9.3,7.5,15.1,9.9c5.8,2.4,11.9,3.6,18.5,3.6s12.7-1.2,18.4-3.6c5.7-2.4,10.7-5.8,15-10
		c4.3-4.3,7.6-9.3,10.1-15c2.5-5.7,3.7-11.9,3.7-18.4c0-6.4-1.2-12.5-3.6-18.3C466.7,496.3,463.3,491.3,459,487z M453.2,532.1
		c-1.6,3.7-3.7,6.9-6.5,9.7c-2.7,2.7-5.9,4.9-9.6,6.5c-3.6,1.6-7.6,2.3-11.9,2.3c-4.3,0-8.2-0.8-11.8-2.3c-3.6-1.6-6.7-3.7-9.4-6.5
		c-2.7-2.7-4.8-5.9-6.3-9.5c-1.5-3.6-2.3-7.5-2.3-11.7c0-4.1,0.8-8,2.3-11.7c1.5-3.7,3.6-7,6.3-9.8c2.7-2.8,5.8-5,9.4-6.7
		c3.6-1.7,7.6-2.5,11.9-2.5c4.1,0,8,0.8,11.7,2.4c3.7,1.6,6.9,3.8,9.7,6.5c2.7,2.7,4.9,6,6.5,9.7c1.6,3.7,2.4,7.6,2.4,11.8
		C455.5,524.5,454.7,528.4,453.2,532.1z"/>
	<path class="st0" d="M570.8,502c-2.4-5.7-5.8-10.7-10.1-15c-4.3-4.3-9.4-7.6-15.2-10.2c-5.8-2.5-12.1-3.8-19-3.8
		c-6.6,0-12.8,1.3-18.5,3.8c-5.7,2.6-10.6,6-14.8,10.4c-4.2,4.4-7.5,9.4-9.9,15.1c-2.4,5.7-3.6,11.8-3.6,18.1
		c0,6.5,1.3,12.6,3.8,18.3c2.5,5.7,5.9,10.6,10.2,14.8c4.3,4.2,9.3,7.5,15.1,9.9c5.8,2.4,11.9,3.6,18.5,3.6c6.5,0,12.7-1.2,18.4-3.6
		c5.7-2.4,10.7-5.8,15-10c4.3-4.3,7.6-9.3,10.1-15h0c2.5-5.7,3.7-11.9,3.7-18.4C574.5,513.9,573.3,507.8,570.8,502z M554.9,532.1
		c-1.6,3.7-3.7,6.9-6.5,9.7c-2.7,2.7-5.9,4.9-9.6,6.5c-3.6,1.6-7.6,2.3-11.9,2.3c-4.3,0-8.2-0.8-11.8-2.3c-3.6-1.6-6.7-3.7-9.4-6.5
		c-2.7-2.7-4.8-5.9-6.3-9.5c-1.5-3.6-2.3-7.5-2.3-11.7c0-4.1,0.8-8,2.3-11.7c1.5-3.7,3.6-7,6.3-9.8c2.7-2.8,5.8-5,9.4-6.7
		c3.6-1.7,7.6-2.5,11.9-2.5c4.1,0,8,0.8,11.7,2.4c3.7,1.6,6.9,3.8,9.7,6.5c2.7,2.7,4.9,6,6.5,9.7c1.6,3.7,2.4,7.6,2.4,11.8
		C557.3,524.5,556.5,528.4,554.9,532.1z"/>
	<path class="st0" d="M387.6,402h315.1c6,0,10.8-4.9,10.8-10.8s-4.9-10.8-10.8-10.8H387.6c-6,0-10.8,4.9-10.8,10.8
		S381.6,402,387.6,402z"/>
	<path class="st0" d="M696.4,252.4h-24.3c-6,0-10.8,4.9-10.8,10.8c0,6,4.9,10.8,10.8,10.8h24.3c6,0,10.8-4.9,10.8-10.8
		C707.3,257.2,702.4,252.4,696.4,252.4z"/>
	<path class="st0" d="M624,252.4h-24.3c-6,0-10.8,4.9-10.8,10.8c0,6,4.9,10.8,10.8,10.8H624c6,0,10.8-4.9,10.8-10.8
		C634.8,257.2,629.9,252.4,624,252.4z"/>
	<path class="st0" d="M499.4,3.8C225.3,3.8,3.1,226,3.1,500.2s222.2,496.3,496.3,496.3s496.3-222.2,496.3-496.3S773.5,3.8,499.4,3.8
		z M277.6,244.6L277.6,244.6c0-14.3,11.7-26,26-26h411.9c14.3,0,26,11.7,26,26v63.2h-464V244.6z M277.6,329.5h464
		c0,0,0,269.5,0,269.5c0,14.4-11.7,26-26,26H303.6c-14.4,0-26-11.7-26-26V329.5z M270.8,822.2c16.9-25.3,43.6-42.3,73.6-47
		c47.6-7.4,115.8-21.6,121.6-43.4c1.7-6.2,1.3-12.5-0.4-18.7h88c-1.7,6.2-2.1,12.5-0.4,18.7c5.9,21.8,74,36.1,121.6,43.4
		c30,4.7,56.7,21.7,73.6,47H270.8z M811.4,665.4c0,14.4-11.7,26-26,26H233.8c-14.4,0-26-11.7-26-26V295.8c0-14.4,11.7-26,26-26h22.1
		v38.1c0,0,0,0.1,0,0.1c0,7.2,0,14.3,0,21.5c0,0,0,0.1,0,0.1v269.5c0,26.4,21.4,47.7,47.7,47.7h411.9c26.4,0,47.7-21.4,47.7-47.7
		V329.5c0,0,0-0.1,0-0.1c0-7.2,0-14.3,0-21.5c0,0,0-0.1,0-0.1v-38.1h22.1v0c14.4,0,26,11.7,26,26V665.4z"/>
	<path class="st0" d="M551.5,252.4h-24.3c-6,0-10.8,4.9-10.8,10.8c0,6,4.9,10.8,10.8,10.8h24.3c6,0,10.8-4.9,10.8-10.8
		C562.4,257.2,557.5,252.4,551.5,252.4z"/>
	<path class="st0" d="M316.4,402h24.3c6,0,10.8-4.9,10.8-10.8s-4.9-10.8-10.8-10.8h-24.3c-6,0-10.8,4.9-10.8,10.8
		S310.5,402,316.4,402z"/>
	<path class="st0" d="M345.4,566.9c4.2,4.2,11.1,4.2,15.3,0c4.2-4.2,4.2-11.1,0-15.3v0l-28.9-28.9l28.9-28.9
		c4.2-4.2,4.2-11.1,0-15.3c-4.2-4.2-11.1-4.2-15.3,0l-36.6,36.6c-4.2,4.2-4.2,11.1,0,15.3L345.4,566.9z"/>
</g>
</svg>
