<?xml version="1.0" encoding="utf-8"?>
<!-- Generator: Adobe Illustrator 23.0.1, SVG Export Plug-In . SVG Version: 6.00 Build 0)  -->
<!DOCTYPE svg PUBLIC "-//W3C//DTD SVG 1.1//EN" "http://www.w3.org/Graphics/SVG/1.1/DTD/svg11.dtd" [
	<!ENTITY ns_extend "http://ns.adobe.com/Extensibility/1.0/">
	<!ENTITY ns_ai "http://ns.adobe.com/AdobeIllustrator/10.0/">
	<!ENTITY ns_graphs "http://ns.adobe.com/Graphs/1.0/">
	<!ENTITY ns_vars "http://ns.adobe.com/Variables/1.0/">
	<!ENTITY ns_imrep "http://ns.adobe.com/ImageReplacement/1.0/">
	<!ENTITY ns_sfw "http://ns.adobe.com/SaveForWeb/1.0/">
	<!ENTITY ns_custom "http://ns.adobe.com/GenericCustomNamespace/1.0/">
	<!ENTITY ns_adobe_xpath "http://ns.adobe.com/XPath/1.0/">
]>
<svg version="1.1" id="Livello_1" xmlns:x="&ns_extend;" xmlns:i="&ns_ai;" xmlns:graph="&ns_graphs;"
	 xmlns="http://www.w3.org/2000/svg" xmlns:xlink="http://www.w3.org/1999/xlink" x="0px" y="0px" viewBox="0 0 300 300"
	 style="enable-background:new 0 0 300 300;" xml:space="preserve">
<style type="text/css">
	.st0{fill:#31263E;}
</style>
<metadata>
	<sfw  xmlns="&ns_sfw;">
		<slices></slices>
		<sliceSourceBounds  bottomLeftOrigin="true" height="292.7" width="292.7" x="3.6" y="3.9"></sliceSourceBounds>
	</sfw>
</metadata>
<g>
	<path class="st0" d="M64.5,142.8c-2.6,0-4.6,2-4.6,4.6c0,2.6,2,4.6,4.6,4.6c2.6,0,4.6-2,4.6-4.6C69.1,144.9,67.1,142.8,64.5,142.8z
		"/>
	<path class="st0" d="M139,142.9c-2.6,0-4.6,2-4.6,4.6c0,2.6,2,4.6,4.6,4.6c2.6,0,4.6-2,4.6-4.6C143.6,144.9,141.6,142.9,139,142.9z
		"/>
	<path class="st0" d="M149.9,3.5C69.1,3.5,3.6,69,3.6,149.8s65.5,146.3,146.3,146.3s146.3-65.5,146.3-146.3S230.6,3.5,149.9,3.5z
		 M241.5,147.2c0.1,2.1-0.7,4.1-2.2,5.7l-11.8,11.8c-3,3-7.8,3-10.9,0c-2.7-2.7-2.9-7-0.7-9.9H155c-0.7,0-1.4-0.1-2.1-0.2
		c-2.6,5-7.8,8.5-13.9,8.5c-5.8,0-11-3.3-13.7-8H78.1c-1.5,2.6-3.6,4.7-6.3,6.1v21.6c0,19.7,15.9,35.6,35.6,35.6h108.3l0,0h0.4
		c-2.8-3-2.8-7.7,0.1-10.6c3-3,7.8-3,10.9,0l11.8,11.8c0.8,0.8,1.4,1.8,1.8,2.8c1.2,2.8,0.6,6.1-1.6,8.3l-11.7,11.7
		c-3,3-7.8,3-10.9,0c-2.7-2.7-2.9-6.8-0.9-9.7h-13.8l0,0h-93.7c-28.5,0-51.7-23.2-51.7-51.7v-20.4c-4.4-2.8-7.4-7.6-7.4-13.2
		c0-8.7,7-15.7,15.7-15.7c5.8,0,11,3.3,13.7,8.1h47.3c1.6-2.8,4-5,6.9-6.4v-28.9c0-19.9,16.1-36,36-36h48.3l-0.5-0.5
		c-3-3-3-7.8,0-10.9l0,0c3-3,7.8-3,10.9,0l11.8,11.7c0.8,0.8,1.4,1.8,1.8,2.8c1.2,2.8,0.6,6.1-1.6,8.3l-11.8,11.8c-3,3-7.8,3-10.9,0
		c-3-3-3-7.8,0-10.9l0.2-0.2h-44.3c-14.3,0-25.7,11.6-25.7,25.7v27.1c2.7,1.4,4.8,3.6,6.3,6.2c0.7-0.2,1.5-0.4,2.2-0.4h60.4
		c-1.9-2.9-1.5-6.9,1.1-9.5c3-3,7.8-3,10.9,0l11,11C240.2,142.4,241.5,144.7,241.5,147.2L241.5,147.2z"/>
</g>
</svg>
