<?xml version="1.0" encoding="utf-8"?>
<!-- Generator: Adobe Illustrator 23.0.1, SVG Export Plug-In . SVG Version: 6.00 Build 0)  -->
<!DOCTYPE svg PUBLIC "-//W3C//DTD SVG 1.1//EN" "http://www.w3.org/Graphics/SVG/1.1/DTD/svg11.dtd" [
	<!ENTITY ns_extend "http://ns.adobe.com/Extensibility/1.0/">
	<!ENTITY ns_ai "http://ns.adobe.com/AdobeIllustrator/10.0/">
	<!ENTITY ns_graphs "http://ns.adobe.com/Graphs/1.0/">
	<!ENTITY ns_vars "http://ns.adobe.com/Variables/1.0/">
	<!ENTITY ns_imrep "http://ns.adobe.com/ImageReplacement/1.0/">
	<!ENTITY ns_sfw "http://ns.adobe.com/SaveForWeb/1.0/">
	<!ENTITY ns_custom "http://ns.adobe.com/GenericCustomNamespace/1.0/">
	<!ENTITY ns_adobe_xpath "http://ns.adobe.com/XPath/1.0/">
]>
<svg version="1.1" id="Livello_1" xmlns:x="&ns_extend;" xmlns:i="&ns_ai;" xmlns:graph="&ns_graphs;"
	 xmlns="http://www.w3.org/2000/svg" xmlns:xlink="http://www.w3.org/1999/xlink" x="0px" y="0px" viewBox="0 0 512 512"
	 style="enable-background:new 0 0 512 512;" xml:space="preserve">
<style type="text/css">
	.st0{fill-rule:evenodd;clip-rule:evenodd;fill:#31263E;}
</style>
<metadata>
	<sfw  xmlns="&ns_sfw;">
		<slices></slices>
		<sliceSourceBounds  bottomLeftOrigin="true" height="504.7" width="504.7" x="3.7" y="4.3"></sliceSourceBounds>
	</sfw>
</metadata>
<g>
	<path class="st0" d="M347,252.5v-5.8h-39.5l-48.7-48.7v-65.8h0h-5.8v0v65.8l-48.7,48.7h-39.5v5.8h39.5l49.6,49.6
		c1.1,1.1,3,1.1,4.1,0l49.6-49.6L347,252.5L347,252.5L347,252.5z M255.7,252.5L255.7,252.5L255.7,252.5l0.2,0h15.5
		c-0.6,3.2-2.2,6.1-4.4,8.3l-0.1,0.2c-2.8,2.8-6.8,4.5-11.1,4.5c-4.4,0-8.3-1.8-11.2-4.6c-2.2-2.2-3.8-5.1-4.4-8.3H255.7z
		 M258.7,246.6v-12.7c3.2,0.6,6.1,2.2,8.3,4.4l0.2,0.1c2.1,2.2,3.6,5,4.2,8.2H258.7z M240.2,246.6c0.6-3.2,2.2-6.1,4.4-8.3
		c2.2-2.2,5.1-3.8,8.3-4.4v12.7H240.2z M252.9,206.2V228c-4.8,0.6-9.2,2.9-12.4,6.2c-3.3,3.3-5.5,7.6-6.2,12.4h-21.9L252.9,206.2z
		 M255.8,295.8l-43.4-43.4h21.9c0.7,4.8,2.9,9.1,6.2,12.4c3.9,3.9,9.4,6.3,15.3,6.3c5.9,0,11.3-2.4,15.2-6.2l0.2-0.2
		c3.3-3.3,5.5-7.6,6.2-12.4h21.9L255.8,295.8z M277.3,246.6c-0.6-4.7-2.8-9-6-12.2l-0.2-0.2c-3.3-3.3-7.6-5.5-12.4-6.2v-21.9
		l40.5,40.5H277.3z"/>
	<path class="st0" d="M256,3C116.6,3,3.7,116,3.7,255.3s113,252.3,252.3,252.3s252.3-113,252.3-252.3S395.4,3,256,3z M352.8,154
		l21.5,5.8l-21.5,80.1V154z M198.2,112.6l51.4,13.8h-55.1L198.2,112.6z M158.2,404.4H85.7c-1.6,0-2.9-1.3-2.9-2.9
		c0-1.6,1.3-2.9,2.9-2.9h72.5c1.6,0,2.9,1.3,2.9,2.9C161.1,403.1,159.8,404.4,158.2,404.4z M289.4,385.6c1.6,0,2.9,1.3,2.9,2.9
		c0,1.6-1.3,2.9-2.9,2.9h-169c-1.6,0-2.9-1.3-2.9-2.9c0-1.6,1.3-2.9,2.9-2.9H289.4z M137.4,339.4l21.5-80.1v85.9L137.4,339.4z
		 M262.1,372.8h55.1l-3.7,13.8L262.1,372.8z M376.8,404.8h-153c-1.6,0-2.9-1.3-2.9-2.9c0-1.6,1.3-2.9,2.9-2.9h153
		c1.6,0,2.9,1.3,2.9,2.9C379.7,403.5,378.4,404.8,376.8,404.8z M387.1,328.6h-37.2h-0.1h-73.2v-5.7h100.8c1.6,0,2.9-1.3,2.9-2.9
		c0-1.6-1.3-2.9-2.9-2.9H276.6v-5.7h51.1h22.2h0.2h37.1V328.6z M411.6,404.8h-19.1c-1.6,0-2.9-1.3-2.9-2.9c0-1.6,1.3-2.9,2.9-2.9
		h19.1c1.6,0,2.9,1.3,2.9,2.9C414.5,403.5,413.2,404.8,411.6,404.8z M393,328.6v-17.2h3.7v17.2H393z M420.1,327.3
		c0,0.3-0.1,0.6-0.3,0.8l-0.1,0.1c-0.2,0.2-0.6,0.4-0.9,0.4h-16.3v-17.2h17.6V327.3z M433.9,265H403v-12.6h-56h0v53h-73.2h-0.1
		h-13.2c-0.5,0-1,0.1-1.4,0.4l-24.1,11.4l-0.1,0l-0.1,0l-0.1,0l-0.1,0l-0.1,0l-0.1,0l-0.1,0l0,0l-0.1,0l-0.1,0l0,0l-0.1,0l-0.1,0
		l0,0l0,0l0,0l0,0l0,0.1l0,0l0,0l0,0.1l0,0l0,0.1l0,0l0,0.1l0,0l0,0.1l0,0.1l0,0l0,0.1l0,0.1l0,0.1l0,0l0,0.1l0,0.1l0,0.1l0,0.1
		l0,0.1v0l0,0.1v0.1l0,0.1l0,0.1v0.1v0.1v0.1v0.1v0.1v0.1v0.1l0,0.1l0,0.1l0,0.1l0,0.1l0,0.1l0,0.1l0,0.1l0,0.1l0,0.1l0,0.1l0,0.1
		l0,0v0l0,0v0l0,0l0,0.1l0,0l0,0.1l0,0l0,0l0,0.1l0,0l0,0l0,0l0,0l0,0.1l0,0l0,0l0,0v0l0,0v0l0,0l0,0l0,0l0,0l0,0l0,0l0,0l0,0l0,0
		l0,0l0.1,0v0l0,0l0.1,0l0,0v0l0.1,0l0.1,0l0,0l24.3,11.5c0.4,0.2,0.8,0.3,1.2,0.3h13.2h0.1H347v32.5H321H321H164.7v-18v-0.1v-96.4
		v0h0h-52.8l4.3,7.4H78.1l19.1-33l9.5,16.5l1.9,3.3h56.1v0V132.2h25.9h0.1h62.2h0V94.7c-3.2-0.6-6.1-2.2-8.3-4.4l-0.2-0.1
		c-2.8-2.8-4.5-6.8-4.5-11.1c0-4.4,1.8-8.3,4.7-11.2c2.9-2.9,6.8-4.6,11.2-4.6c4.4,0,8.4,1.8,11.2,4.6c2.9,2.9,4.7,6.8,4.7,11.2
		c0,4.4-1.8,8.4-4.7,11.3c-2.2,2.2-5.1,3.8-8.3,4.4v37.5H347v18v0.1v96.4h56v-12.6h30.9V265z M270.8,311.3v17.2h-9.7l-18.2-8.6
		l18.2-8.6H270.8z"/>
</g>
<g id="Layer_1">
</g>
</svg>
